<svg xmlns="http://www.w3.org/2000/svg" width="103.035" height="93.618" viewBox="0 0 103.035 93.618">
  <g id="Group_289" data-name="Group 289" transform="translate(-10.8 -22.379)">
    <g id="Group_288" data-name="Group 288" transform="translate(16.122 22.379)">
      <path id="Path_241" data-name="Path 241" d="M60.211,99.466l3.412,10.918H56.845Zm-4.276-6.687-9.826,28.2h7.46l1.683-5.368H65.17l1.683,5.368H74.54l-9.826-28.2Zm21.608,0v28.2H95.6v-5.868H84.867V92.779ZM26.23,95.418c-2.957,2.775-3.73,7.1-3.73,11.827,0,4.276.637,8.689,3.639,11.463,1.774,1.683,4.458,2.82,8.461,2.82a13.906,13.906,0,0,0,10.827-4.413l-4.322-4.094a8.652,8.652,0,0,1-6.232,2.82,4.074,4.074,0,0,1-3.412-1.365c-.955-1.137-1.365-3.048-1.365-7.369,0-4.367.409-6.323,1.183-7.46.637-.91,1.82-1.592,4.094-1.592a8.694,8.694,0,0,1,5.641,1.865l4-4.549c-2.5-2.411-6.05-3.093-9.416-3.093-4.5.045-7.46,1.274-9.371,3.139m74.785,0c-2.957,2.775-3.73,7.1-3.73,11.827,0,4.276.637,8.689,3.639,11.463,1.774,1.683,4.458,2.82,8.461,2.82a13.906,13.906,0,0,0,10.827-4.413l-4.322-4.094a8.652,8.652,0,0,1-6.232,2.82,4.074,4.074,0,0,1-3.412-1.365c-.955-1.137-1.365-3.048-1.365-7.369,0-4.367.409-6.323,1.183-7.46.637-.91,1.82-1.592,4.094-1.592a8.694,8.694,0,0,1,5.641,1.865l4-4.549c-2.5-2.411-6.05-3.093-9.416-3.093-4.458.045-7.415,1.274-9.371,3.139" transform="translate(-22.5 -60.482)" fill="#1daf90"/>
      <path id="Path_242" data-name="Path 242" d="M45.609,22.424l-5.777,17.6-5.641-17.6H24.274L22.5,50.4h7.1l.819-20.88,6,19.652h6.687l6.05-19.561.773,20.834h7.142L55.3,22.47H45.609Zm22.063,5.55h4.549c2,0,3.23.409,4.049,1.228,1.092,1.092,1.456,3.139,1.456,7.051,0,4-.364,5.959-1.41,7.051a5.465,5.465,0,0,1-4.14,1.365h-4.5V27.974ZM60.3,22.424V50.4h12.51c3.867,0,6.687-1,8.643-2.638,3.184-2.638,3.867-7.005,3.867-11.827,0-5.049-.773-8.78-3.5-11.145a11.464,11.464,0,0,0-5.914-2.411H60.3Z" transform="translate(-22.5 -22.379)" fill="#1daf90"/>
    </g>
    <path id="Path_243" data-name="Path 243" d="M127.074,166.679v4.094H118.84v4.14h7.506v4.094H118.84v4.5h8.416v4.049H113.7v-20.88Z" transform="translate(-56.091 -78.658)" fill="#f2b657"/>
    <path id="Path_244" data-name="Path 244" d="M155.531,166.679v8.052h7.051v-8.052h5.231v20.88h-5.231v-8.507h-7.051v8.507H150.3v-20.88Z" transform="translate(-76.041 -78.658)" fill="#f2b657"/>
    <path id="Path_245" data-name="Path 245" d="M197.885,32.268h-8.416V23.853a1.271,1.271,0,0,0-1.274-1.274h-6.232a1.271,1.271,0,0,0-1.274,1.274v8.416h-8.416A1.271,1.271,0,0,0,171,33.542v6.232a1.271,1.271,0,0,0,1.274,1.274h8.416v8.416a1.271,1.271,0,0,0,1.274,1.274H188.2a1.271,1.271,0,0,0,1.274-1.274V41.048h8.416a1.271,1.271,0,0,0,1.274-1.274V33.542A1.244,1.244,0,0,0,197.885,32.268Z" transform="translate(-87.325 -0.109)" fill="#157e68"/>
    <path id="Path_246" data-name="Path 246" d="M202.077,176.368h2.365c2.5,0,3.776-.5,3.776-3.139a2.3,2.3,0,0,0-.637-1.956,3.049,3.049,0,0,0-1.956-.409h-3.594v5.5Zm3.912-9.689a10.307,10.307,0,0,1,5.277,1.137c1.456.864,2.456,2.274,2.456,4.822,0,2.866-1.228,5.049-4.231,5.777,2.82.5,3.685,3.048,4.367,9.143h-5.55c-.819-5.641-1.274-7.1-3.275-7.1h-2.957v7.1H196.8v-20.88Z" transform="translate(-101.389 -78.658)" fill="#f2b657"/>
    <path id="Path_247" data-name="Path 247" d="M26.494,173.041H22.127l-3.184,14.83c-.728,3.275-2.184,5.095-5.368,5.095a5.982,5.982,0,0,1-2.775-.591l.864-1.638a3.615,3.615,0,0,0,1.911.5c1.865,0,2.82-1.046,3.321-3.412l3.184-14.784H16.759l.409-1.774h3.275l.273-1.319c.773-3.594,2.775-6.369,6.823-6.369a5.163,5.163,0,0,1,3.548,1.092l-1.183,1.365a3.6,3.6,0,0,0-2.456-.682c-2.729,0-4.049,1.547-4.731,4.64l-.273,1.319h4.413Z" transform="translate(0 -76.968)" fill="#f2b657"/>
    <path id="Path_248" data-name="Path 248" d="M50.606,180.608a4.841,4.841,0,0,0-4.14,2.274,13.048,13.048,0,0,0-1.774,6.414c0,1.911.5,3.548,3.139,3.548a4.59,4.59,0,0,0,4.049-2.32,12.519,12.519,0,0,0,1.774-6.369c.091-1.865-.455-3.548-3.048-3.548m2.547,11.509a7.031,7.031,0,0,1-5.5,2.411c-3.5,0-5.049-1.956-5.049-5.459a12.308,12.308,0,0,1,2.684-7.733,7.178,7.178,0,0,1,5.6-2.456c3.457,0,5.049,1.956,5.049,5.5a12.153,12.153,0,0,1-2.775,7.733" transform="translate(-17.334 -85.308)" fill="#f2b657"/>
    <path id="Path_249" data-name="Path 249" d="M84.863,181.208a2.616,2.616,0,0,0-1.41-.364c-2.775,0-4.685,3.184-5.6,7.415l-1.319,6H74.4L77.63,179.3h2.047l-.773,3.275c1.183-2.456,2.957-3.594,4.913-3.594a3.314,3.314,0,0,1,2,.591Z" transform="translate(-34.668 -85.363)" fill="#f2b657"/>
  </g>
</svg>
