<svg xmlns="http://www.w3.org/2000/svg" width="97.712" height="61.048" viewBox="0 0 97.712 61.048">
  <g id="Group_291" data-name="Group 291" transform="translate(-291.193 -22.379)">
    <g id="Group_290" data-name="Group 290" transform="translate(291.193 22.379)">
      <path id="Path_250" data-name="Path 250" d="M328.9,99.466l3.412,10.918h-6.778Zm-4.276-6.687-9.826,28.2h7.46l1.683-5.368h9.917l1.683,5.368h7.688l-9.826-28.2Zm21.608,0v28.2H364.3v-5.868H353.56V92.779Zm-51.313,2.638c-2.957,2.775-3.73,7.1-3.73,11.827,0,4.276.637,8.689,3.639,11.463,1.774,1.683,4.458,2.82,8.461,2.82a13.906,13.906,0,0,0,10.827-4.413l-4.322-4.094a8.652,8.652,0,0,1-6.232,2.82,4.074,4.074,0,0,1-3.412-1.365c-.955-1.137-1.365-3.048-1.365-7.369,0-4.367.409-6.323,1.183-7.46.637-.91,1.82-1.592,4.094-1.592a8.694,8.694,0,0,1,5.641,1.865l4-4.549c-2.5-2.411-6.05-3.093-9.416-3.093-4.5.045-7.46,1.274-9.371,3.139m74.785,0c-2.957,2.775-3.73,7.1-3.73,11.827,0,4.276.637,8.689,3.639,11.463,1.774,1.683,4.458,2.82,8.461,2.82a13.906,13.906,0,0,0,10.827-4.413l-4.322-4.094a8.652,8.652,0,0,1-6.232,2.82,4.074,4.074,0,0,1-3.412-1.365c-.955-1.137-1.365-3.048-1.365-7.369,0-4.367.409-6.323,1.183-7.46.637-.91,1.82-1.592,4.094-1.592a8.694,8.694,0,0,1,5.641,1.865l4-4.549c-2.5-2.411-6.05-3.093-9.416-3.093-4.458.045-7.415,1.274-9.371,3.139" transform="translate(-291.193 -60.482)" fill="#1daf90"/>
      <path id="Path_251" data-name="Path 251" d="M314.3,22.424l-5.777,17.6-5.641-17.6h-9.917L291.193,50.4h7.1l.819-20.88,6,19.652H311.8l6.05-19.561.773,20.834h7.142L323.991,22.47H314.3Zm22.063,5.55h4.549c2,0,3.23.409,4.049,1.228,1.092,1.092,1.456,3.139,1.456,7.051,0,4-.364,5.959-1.41,7.051a5.465,5.465,0,0,1-4.14,1.365h-4.5V27.974ZM329,22.424V50.4H341.5c3.867,0,6.687-1,8.643-2.638,3.184-2.638,3.867-7.005,3.867-11.827,0-5.049-.773-8.78-3.5-11.145a11.464,11.464,0,0,0-5.914-2.411H329Z" transform="translate(-291.193 -22.379)" fill="#1daf90"/>
    </g>
    <path id="Path_252" data-name="Path 252" d="M466.578,32.268h-8.416V23.853a1.271,1.271,0,0,0-1.274-1.274h-6.232a1.272,1.272,0,0,0-1.274,1.274v8.416h-8.416a1.272,1.272,0,0,0-1.274,1.274v6.232a1.272,1.272,0,0,0,1.274,1.274h8.416v8.416a1.272,1.272,0,0,0,1.274,1.274h6.232a1.271,1.271,0,0,0,1.274-1.274V41.048h8.416a1.271,1.271,0,0,0,1.274-1.274V33.542A1.244,1.244,0,0,0,466.578,32.268Z" transform="translate(-80.947 -0.109)" fill="#157e68"/>
  </g>
</svg>
