<svg xmlns="http://www.w3.org/2000/svg" width="173.061" height="182.102" viewBox="0 0 173.061 182.102">
  <g id="Group_300" data-name="Group 300" transform="translate(-4598.688 -658.981)">
    <path id="Path_262" data-name="Path 262" d="M4765.093,687.962h-9.663V659.047h48.146v28.889h-9.63V726.5h28.395c.693,0,.694,0,.694-.691V687.989h-9.645V659.046h30.784c0,.026,0,.073-.015.087a29.37,29.37,0,0,0-8.865,12.36,34.176,34.176,0,0,0-2.564,14.875,27.061,27.061,0,0,0,3.909,13c.086.136.168.273.26.4a.636.636,0,0,0,.137.109q2.111-2.034,4.215-4.064c.3-.292.764-.568.828-.911.057-.317-.343-.7-.506-1.076-.54-1.229-1.063-2.464-1.615-3.751.729-.285,1.335-.522,1.943-.758q4.161-1.622,8.323-3.241c.877-.341,1.2-.889.942-1.614-.253-.707-.954-.955-1.819-.621q-4.662,1.8-9.322,3.608c-.164.063-.329.121-.563.208a28.945,28.945,0,0,1-.407-7.344c.662-.034,1.278-.076,1.894-.095q4.02-.124,8.04-.237a1.228,1.228,0,0,0,1.317-1,1.2,1.2,0,0,0-1.317-1.362c-1.7.037-3.407.12-5.11.15-1.487.026-2.976.005-4.534.005a32.745,32.745,0,0,1,1.5-6.341l6.417,2.106.3.1c.9.289,1.556.056,1.767-.627.219-.7-.153-1.257-1.053-1.555q-3.051-1.013-6.105-2.021c-.15-.05-.3-.106-.562-.2.824-1.616,1.633-3.2,2.479-4.854.958,1.027,1.806,1.955,2.675,2.865a1.1,1.1,0,0,0,1.911-.412,1.141,1.141,0,0,0-.379-1.152q-1.235-1.326-2.473-2.646c-.133-.142-.262-.288-.5-.545.876-.9,1.76-1.784,2.617-2.693a2.611,2.611,0,0,1,2.117-.821c3.6.052,7.208.022,10.814.022h.666v28.912h-6.4c1.5-4.8.227-9.084-2.5-13.09.208.7.443,1.4.62,2.111a13.876,13.876,0,0,1-2.843,12.35,75.854,75.854,0,0,1-5.187,5.923,125.608,125.608,0,0,0-8.942,9.784,37.415,37.415,0,0,0-7.256,15.181,42.214,42.214,0,0,0-.737,12.126,76.835,76.835,0,0,0,5.183,21.37.875.875,0,0,1-.158.935,2.072,2.072,0,0,1-1.966.9q-23.172-.043-46.344-.012a1.3,1.3,0,0,1-1.02-.415q-9.215-9.2-18.458-18.379a1.354,1.354,0,0,1-.448-1.062q.015-23.439.009-46.878Z" transform="translate(-123.343 0)" fill="#fff"/>
    <path id="Path_263" data-name="Path 263" d="M4599.957,1246.959h5.991v13.793c.245.011.436.027.625.027,4.012,0,8.025-.009,12.038.013.525,0,.648-.159.646-.661-.018-4.172-.011-8.344-.01-12.517,0-.689,0-.69.7-.69h5.371v32.911c-.15.014-.3.042-.455.042-1.687,0-3.374-.012-5.06.011-.45.006-.567-.146-.565-.578q.02-6.152.005-12.3c0-.243-.021-.487-.032-.756H4605.96v13.595h-6Z" transform="translate(-0.998 -462.663)" fill="#fff"/>
    <path id="Path_264" data-name="Path 264" d="M5310.754,1266.208h-.624c-4.013,0-8.025.009-12.038-.012-.517,0-.651.146-.647.654.019,4.1.01,8.2.01,12.3v.669h-6.008v-32.865h6v13.8h13.284v-13.823c.555,0,1.027,0,1.5,0,1.33,0,2.664.023,3.994-.03.572-.023.667.179.665.691q-.019,14.914-.009,29.829c0,.657-.016,1.315,0,1.971.014.376-.133.489-.5.486-1.687-.014-3.375-.023-5.061.005-.484.008-.591-.156-.59-.61.016-4.1.009-8.2.009-12.3Z" transform="translate(-545.146 -462.649)" fill="#fff"/>
    <path id="Path_265" data-name="Path 265" d="M5149.712,847.653l-6.944-.321c-.728-.033-1.454-.081-2.183-.089a1.844,1.844,0,1,0-.087,3.685q4.415.215,8.83.42c.1.005.208.015.387.029v1.106c0,1.207-.027,2.416.015,3.622a.741.741,0,0,1-.582.834c-3.069,1.2-6.129,2.432-9.187,3.661a1.965,1.965,0,1,0,1.473,3.638q3.88-1.544,7.749-3.1c.161-.064.324-.119.547-.2,0,1.561-.046,3.068.019,4.57a2.272,2.272,0,0,1-.778,1.891c-2.992,2.909-5.941,5.861-8.905,8.8-.136.135-.277.262-.449.424-.059-.091-.1-.143-.131-.2a55.221,55.221,0,0,1-4.9-13.729,31.508,31.508,0,0,1,3.936-22.937,87.6,87.6,0,0,1,6.861-9.546c1.381-1.759,2.726-3.545,4.087-5.318.051-.066.107-.128.22-.263v12.985c-.652-.615-1.231-1.177-1.827-1.72a1.87,1.87,0,0,0-2.955.443,1.849,1.849,0,0,0,.437,2.318c1.324,1.263,2.649,2.521,3.991,3.764a1.05,1.05,0,0,1,.384.869C5149.7,844.714,5149.712,846.149,5149.712,847.653Z" transform="translate(-421.176 -130.345)" fill="#fff"/>
    <path id="Path_266" data-name="Path 266" d="M4911.382,1279.866c-2.093,0-4.1.011-6.1-.02-.16,0-.393-.26-.464-.447q-1.351-3.5-2.651-7.01a.677.677,0,0,0-.755-.54q-5.617.027-11.237,0a.68.68,0,0,0-.761.535c-.868,2.362-1.767,4.712-2.652,7.067-.093.243-.174.427-.506.425-1.953-.018-3.905-.011-5.857-.014a1.361,1.361,0,0,1-.222-.048c.061-.185.114-.361.179-.534q5.953-15.905,11.9-31.813a.706.706,0,0,1,.791-.556c1.845.029,3.692.021,5.538,0a.606.606,0,0,1,.693.458q5.963,16.015,11.951,32.02C4911.276,1279.524,4911.313,1279.657,4911.382,1279.866Zm-19.713-13.377h8.286c-1.392-4.207-2.761-8.343-4.129-12.479l-.12.008C4894.365,1258.16,4893.025,1262.3,4891.669,1266.489Z" transform="translate(-221.507 -462.652)" fill="#fff"/>
    <path id="Path_267" data-name="Path 267" d="M4762.418,1247.042h20.313v5.385h-14.282v8.67h12.492v5.329h-12.492v8.127H4783.2v5.372h-20.784Z" transform="translate(-128.842 -462.756)" fill="#fff"/>
    <path id="Path_268" data-name="Path 268" d="M5158.854,1280.1h-2.891c-.905,0-1.812-.02-2.716.009-.409.013-.55-.13-.508-.518a4.23,4.23,0,0,0,0-.479q0-12.862,0-25.723c0-.724,0-.725-.721-.725h-8.554v-5.532H5168.1a4.645,4.645,0,0,1,.046.472c0,1.509-.011,3.018.011,4.527.006.42-.129.544-.546.542-2.716-.016-5.432,0-8.149-.019-.5,0-.621.152-.62.634q.021,13.022.01,26.042Z" transform="translate(-428.697 -462.828)" fill="#fff"/>
    <path id="Path_269" data-name="Path 269" d="M5058.535,1246.933v27.554h12.027c.708,0,.709,0,.71.692,0,1.367-.013,2.735.009,4.1.008.441-.09.623-.583.622q-8.844-.025-17.686,0c-.436,0-.58-.124-.579-.57q.014-15.928,0-31.856c0-.4.1-.557.535-.552C5054.8,1246.947,5056.623,1246.933,5058.535,1246.933Z" transform="translate(-357.061 -462.663)" fill="#fff"/>
    <path id="Path_270" data-name="Path 270" d="M4665.063,1468.062a13.757,13.757,0,0,1-1.453-.018c-.16-.017-.341-.217-.438-.378q-2.289-3.778-4.555-7.569a1.365,1.365,0,0,0-.408-.468v8.394h-1.787v-11.959c.511,0,1.038-.027,1.559.018.138.012.289.225.382.377q2.251,3.738,4.489,7.484a1.331,1.331,0,0,0,.44.487v-8.341h1.771Z" transform="translate(-45.433 -627.233)" fill="#fff"/>
    <path id="Path_271" data-name="Path 271" d="M5083.305,1455.433a6.135,6.135,0,1,1-6.045,6.155A6.1,6.1,0,0,1,5083.305,1455.433Zm.07,10.506a4.29,4.29,0,0,0,4.4-4.249,4.4,4.4,0,1,0-4.4,4.249Z" transform="translate(-376.598 -626.744)" fill="#fff"/>
    <path id="Path_272" data-name="Path 272" d="M4831.877,1456.482c1.875,0,3.738-.091,5.586.031,1.351.088,2.279,1.232,2.6,2.8a3.613,3.613,0,0,1-1.75,4.183,10.71,10.71,0,0,1-1.246.45l3.093,4.435c-.749,0-1.382.017-2.013-.014-.134-.007-.294-.166-.386-.3-.748-1.079-1.54-2.133-2.2-3.266a1.493,1.493,0,0,0-1.9-.758v4.293h-1.789Zm1.765,5.848a26,26,0,0,0,3.149-.177,2.017,2.017,0,0,0,1.461-2.3,2.073,2.073,0,0,0-1.862-1.819c-.8-.027-1.6-.006-2.391.024-.122,0-.34.17-.341.265C4833.635,1459.619,4833.642,1460.91,4833.642,1462.33Z" transform="translate(-183.501 -627.543)" fill="#fff"/>
    <path id="Path_273" data-name="Path 273" d="M5368.208,1456.207h1.758v5.145h5.473V1456.2h1.8v11.939h-1.79v-5.068h-5.47v5.078h-1.773Z" transform="translate(-605.551 -627.35)" fill="#fff"/>
    <path id="Path_274" data-name="Path 274" d="M5210.34,1456.166h1.83v.578c0,2.307.054,4.616-.022,6.922a2.7,2.7,0,0,0,2.58,2.751,2.654,2.654,0,0,0,2.688-2.71c.019-2.29,0-4.579,0-6.869v-.666h1.777c.01.189.026.377.026.565,0,2.378.006,4.757,0,7.135a4.455,4.455,0,1,1-8.91.036c-.016-2.432,0-4.863,0-7.295C5210.311,1456.473,5210.328,1456.335,5210.34,1456.166Z" transform="translate(-481.293 -627.32)" fill="#fff"/>
    <path id="Path_275" data-name="Path 275" d="M5316.638,1468a1.1,1.1,0,0,1-.168.034c-.548-.006-1.214.172-1.612-.076-.365-.227-.445-.915-.648-1.4-.211-.505-.286-1.2-.664-1.463s-1.058-.1-1.606-.1c-.887-.008-1.776.024-2.662-.013a.661.661,0,0,0-.761.541c-.243.721-.522,1.432-.829,2.128a.7.7,0,0,1-.481.349c-.487.047-.981.016-1.55.016.2-.54.369-1,.542-1.455,1.266-3.347,2.538-6.692,3.79-10.044.13-.346.272-.494.667-.49,1.485.018,1.485,0,2.01,1.394q1.9,5.022,3.789,10.045C5316.516,1467.624,5316.567,1467.792,5316.638,1468Zm-3.652-4.64c-.608-1.705-1.187-3.332-1.766-4.959l-.123.024-1.747,4.935Z" transform="translate(-556.328 -627.207)" fill="#fff"/>
    <path id="Path_276" data-name="Path 276" d="M4598.7,1456.112h1.82c.01.2.027.393.028.581q0,3.595,0,7.19a2.619,2.619,0,1,0,5.237-.032c-.013-2.414,0-4.829,0-7.243,0-.141.02-.281.031-.46h1.78c.009.174.027.345.027.517q0,3.622,0,7.243a4.284,4.284,0,0,1-4.252,4.336,4.381,4.381,0,0,1-4.68-4.57c.065-2.306.014-4.615.014-6.923Z" transform="translate(0 -627.278)" fill="#fff"/>
    <path id="Path_277" data-name="Path 277" d="M4882.88,1464.142c.552,0,1.078-.021,1.6.017.1.007.214.229.276.372a2.284,2.284,0,0,0,1.758,1.531,2.382,2.382,0,0,0,2.434-.673,1.567,1.567,0,0,0-.574-2.586c-.664-.279-1.386-.42-2.078-.639a10.961,10.961,0,0,1-1.55-.542,3.087,3.087,0,0,1-.81-5.044,4.449,4.449,0,0,1,6.061.137,3.3,3.3,0,0,1,.813,2.227h-1.753c-.047-.12-.1-.266-.162-.407a2.125,2.125,0,0,0-1.881-1.36,2.085,2.085,0,0,0-1.941.99,1.2,1.2,0,0,0,.348,1.838,7.122,7.122,0,0,0,1.476.571c.656.213,1.339.351,1.984.6a3.253,3.253,0,0,1,2.325,3.256,3.586,3.586,0,0,1-3.236,3.278,4.532,4.532,0,0,1-4.363-1.5A3.262,3.262,0,0,1,4882.88,1464.142Z" transform="translate(-223.636 -626.76)" fill="#fff"/>
    <path id="Path_278" data-name="Path 278" d="M4790.138,1463.219h-4.653v3.4h5.509v1.568h-7.3v-11.935h7.083v1.614H4785.5v3.653h4.642Z" transform="translate(-145.582 -627.391)" fill="#fff"/>
    <path id="Path_279" data-name="Path 279" d="M4735.656,1464.909q1.263-4.377,2.528-8.757h1.869c-1.208,4-2.408,7.968-3.611,11.959h-1.706q-1.8-5.938-3.622-11.95h1.879q1.261,4.384,2.52,8.761Z" transform="translate(-104.208 -627.308)" fill="#fff"/>
    <path id="Path_280" data-name="Path 280" d="M5152.34,1463.05h-4.2v5.038h-1.786v-11.924h7.036v1.586h-5.231v3.642c1.1,0,2.156-.007,3.215,0,1.11.009.95-.155.966.951C5152.343,1462.556,5152.34,1462.765,5152.34,1463.05Z" transform="translate(-430.969 -627.318)" fill="#fff"/>
    <path id="Path_281" data-name="Path 281" d="M5004.327,1468.01c0-1.678.015-3.31-.013-4.941a1.786,1.786,0,0,0-.295-.921c-1.276-1.856-2.579-3.693-3.872-5.537-.11-.156-.214-.316-.378-.562.7,0,1.312-.026,1.919.017.164.011.353.2.463.361.909,1.29,1.8,2.592,2.7,3.889.111.159.228.313.379.52.218-.3.415-.566.6-.835.846-1.2,1.678-2.418,2.545-3.607a.972.972,0,0,1,.635-.331c.54-.047,1.087-.015,1.721-.015-.161.245-.268.419-.386.586-1.292,1.824-2.6,3.637-3.865,5.477a2.038,2.038,0,0,0-.333,1.067c-.036,1.6-.016,3.192-.016,4.831Z" transform="translate(-315.618 -627.22)" fill="#fff"/>
    <path id="Path_282" data-name="Path 282" d="M4961.2,1456.281v1.627h-3.541v10.307h-1.813v-10.271h-3.525v-1.662Z" transform="translate(-278.278 -627.41)" fill="#fff"/>
    <path id="Path_283" data-name="Path 283" d="M5263.878,1456.153h8.861v1.641H5269.2v10.275h-1.746V1457.8h-3.574Z" transform="translate(-523.451 -627.31)" fill="#fff"/>
    <path id="Path_284" data-name="Path 284" d="M4713.521,1468.216h-1.741v-11.931h1.741Z" transform="translate(-88.993 -627.413)" fill="#fff"/>
    <path id="Path_285" data-name="Path 285" d="M4933.525,1456.259h1.692V1468.2h-1.692Z" transform="translate(-263.49 -627.393)" fill="#fff"/>
  </g>
</svg>
