<svg xmlns="http://www.w3.org/2000/svg" width="78.968" height="78.087" viewBox="0 0 78.968 78.087">
  <g id="Group_269" data-name="Group 269" transform="translate(-103.149 -76.235)" opacity="0.997">
    <g id="Group_266" data-name="Group 266" transform="translate(103.587 111.131)">
      <path id="Path_171" data-name="Path 171" d="M117.055,347.079H109.2a3.931,3.931,0,0,0-3.927,3.927V368.02a1.309,1.309,0,0,0,1.309,1.309h13.089a1.309,1.309,0,0,0,1.309-1.309V351.009A3.931,3.931,0,0,0,117.055,347.079Zm1.309,19.632H107.893v-15.7A1.311,1.311,0,0,1,109.2,349.7h7.853a1.311,1.311,0,0,1,1.309,1.309v15.7Z" transform="translate(-105.275 -326.141)" fill="#1bb193"/>
      <path id="Path_172" data-name="Path 172" d="M218.659,258.209h-7.853a3.931,3.931,0,0,0-3.927,3.927v35.335a1.309,1.309,0,0,0,1.309,1.309h13.088a1.309,1.309,0,0,0,1.309-1.309V262.136A3.931,3.931,0,0,0,218.659,258.209Zm1.309,37.956H209.5V262.136a1.31,1.31,0,0,1,1.309-1.309h7.853a1.31,1.31,0,0,1,1.309,1.309Z" transform="translate(-185.934 -255.591)" fill="#1bb193"/>
      <path id="Path_173" data-name="Path 173" d="M320.238,296.3h-7.853a3.931,3.931,0,0,0-3.927,3.927v27.485a1.309,1.309,0,0,0,1.309,1.309h13.088a1.309,1.309,0,0,0,1.309-1.309V300.229A3.931,3.931,0,0,0,320.238,296.3Zm1.309,30.1H311.076V300.229a1.31,1.31,0,0,1,1.309-1.309h7.853a1.31,1.31,0,0,1,1.309,1.309V326.4Z" transform="translate(-266.573 -285.831)" fill="#1bb193"/>
      <path id="Path_174" data-name="Path 174" d="M421.8,245.509H413.95a3.931,3.931,0,0,0-3.927,3.927v37.956a1.309,1.309,0,0,0,1.309,1.309h13.088a1.309,1.309,0,0,0,1.309-1.309V249.439A3.931,3.931,0,0,0,421.8,245.509Zm1.309,40.574H412.641V249.439a1.311,1.311,0,0,1,1.309-1.309H421.8a1.31,1.31,0,0,1,1.309,1.309v36.644Z" transform="translate(-347.2 -245.509)" fill="#1bb193"/>
    </g>
    <g id="Group_268" data-name="Group 268" transform="translate(103.149 76.235)">
      <path id="Path_175" data-name="Path 175" d="M167.975,91.925a7.821,7.821,0,1,0-1.4-2.216L158.753,94.6a7.816,7.816,0,0,0-11.031-.691q-.118.1-.231.212l-8.567-6.425a7.852,7.852,0,1,0-12.959,1.477l-10.973,13.04a7.852,7.852,0,1,0,2,1.685l10.973-13.039a7.8,7.8,0,0,0,9.384-1.07l8.567,6.425a7.851,7.851,0,1,0,14.232.6Zm5.861-10.443a5.235,5.235,0,1,1-5.235,5.235h0A5.235,5.235,0,0,1,173.836,81.483ZM111.013,114.2a5.235,5.235,0,1,1,5.235-5.235h0a5.235,5.235,0,0,1-5.234,5.235Zm20.94-24.867a5.235,5.235,0,1,1,5.236-5.235,5.235,5.235,0,0,1-5.236,5.235Zm20.941,15.705a5.235,5.235,0,1,1,5.235-5.235h0a5.235,5.235,0,0,1-5.234,5.235Z" transform="translate(-103.149 -76.235)" fill="#1bb193"/>
      <path id="Path_176" data-name="Path 176" d="M425.891,101.69a5.235,5.235,0,1,0,5.235,5.235h0A5.235,5.235,0,0,0,425.891,101.69Z" transform="translate(-355.203 -96.443)" fill="#1bb193"/>
      <path id="Path_177" data-name="Path 177" d="M279.459,138.26c-.038.035-.077.068-.115.1l-8.522-6.392a7.906,7.906,0,0,1-1.587,2.082l8.536,6.4c-.019.038-.037.076-.055.114A7.9,7.9,0,0,1,279.459,138.26Z" transform="translate(-234.997 -120.479)" fill="#1bb193"/>
      <path id="Path_178" data-name="Path 178" d="M309.7,174.563c.021-.047.042-.1.064-.141C309.739,174.469,309.721,174.516,309.7,174.563Z" transform="translate(-267.12 -154.181)" fill="#1bb193"/>
      <path id="Path_179" data-name="Path 179" d="M309.191,176.105l.017-.044Z" transform="translate(-266.716 -155.482)" fill="#1bb193"/>
      <path id="Path_180" data-name="Path 180" d="M171.628,138.866l-.013.008.014.017-10.963,13.028a7.867,7.867,0,0,1,2,1.691l10.969-13.034.012.007v-.011A7.929,7.929,0,0,1,171.628,138.866Z" transform="translate(-148.809 -125.955)" fill="#1bb193"/>
      <path id="Path_181" data-name="Path 181" d="M249.5,151.759c-.065.012-.13.024-.2.035" transform="translate(-219.171 -136.19)" fill="#1bb193"/>
      <g id="Group_267" data-name="Group 267" transform="translate(55.631 9.673)">
        <path id="Path_182" data-name="Path 182" d="M474.8,151.652l-.089.1Z" transform="translate(-453.744 -145.778)" fill="#1bb193"/>
        <path id="Path_183" data-name="Path 183" d="M408.078,123.4c.005-.081.011-.162.019-.242C408.088,123.235,408.084,123.32,408.078,123.4Z" transform="translate(-400.849 -123.159)" fill="#1bb193"/>
        <path id="Path_184" data-name="Path 184" d="M407.982,125.455c0-.128,0-.254.01-.38C407.985,125.2,407.982,125.328,407.982,125.455Z" transform="translate(-400.773 -124.68)" fill="#1bb193"/>
        <path id="Path_185" data-name="Path 185" d="M382.216,143.753l.007-.01a7.875,7.875,0,0,1-1.406-2.234l-.01.005,0,.013-7.8,4.874a7.877,7.877,0,0,1,1.4,2.213l7.793-4.871Z" transform="translate(-373.012 -137.726)" fill="#1bb193"/>
      </g>
    </g>
  </g>
</svg>
