<svg xmlns="http://www.w3.org/2000/svg" width="77.956" height="78" viewBox="0 0 77.956 78">
  <g id="Group_420" data-name="Group 420" transform="translate(-3454.616 -946.802)">
    <path id="Path_1312" data-name="Path 1312" d="M3519.9,962.986a20.679,20.679,0,0,0-6.569-11.513,18.382,18.382,0,0,0-12.1-4.671,18.574,18.574,0,0,0-15.407,8.359,14.741,14.741,0,0,0-2.983-.306h-.02c-7.2,0-13.563,5.4-15.21,12.866-7.306.6-12.993,7.123-12.993,14.964,0,8.276,6.317,15.009,14.082,15.009h13.269a23.507,23.507,0,1,0,45.229-4.665,18.044,18.044,0,0,0,5.371-12.927A17.265,17.265,0,0,0,3519.9,962.986Zm-14.715,17.958a20.3,20.3,0,1,1-20.3,20.3A20.318,20.318,0,0,1,3505.188,980.944Zm11.117-.419a23.489,23.489,0,0,0-33.621,13.951H3468.7c-5.99,0-10.864-5.29-10.864-11.791s4.873-11.791,10.864-11.791h.258a1.616,1.616,0,0,0,1.593-1.385c.918-6.519,6.194-11.435,12.272-11.435a11.382,11.382,0,0,1,3.272.472,1.608,1.608,0,0,0,1.85-.718,15.587,15.587,0,0,1,13.29-7.807c7.76,0,14.5,6.247,15.673,14.531a1.6,1.6,0,0,0,1.313,1.358c6.45,1.142,11.131,7.108,11.131,14.189a14.817,14.817,0,0,1-3.583,9.8A23.4,23.4,0,0,0,3516.3,980.525Z" transform="translate(0)" fill="#1bb193"/>
    <path id="Path_1313" data-name="Path 1313" d="M3618.848,1158.054a1.6,1.6,0,0,0,1.138-.47l3.869-3.869a1.609,1.609,0,0,0-2.275-2.276l-.7.7a11.276,11.276,0,0,1,10.854-8.257,1.609,1.609,0,1,0,0-3.218,14.53,14.53,0,0,0-14.285,12.107l-1.331-1.331a1.609,1.609,0,0,0-2.271,2.279l3.865,3.865A1.6,1.6,0,0,0,3618.848,1158.054Z" transform="translate(-124.843 -152.429)" fill="#1bb193"/>
    <path id="Path_1314" data-name="Path 1314" d="M3687.513,1180.576l1.016-1.016a11.267,11.267,0,0,1-11.173,9.865,1.609,1.609,0,1,0,0,3.218,14.452,14.452,0,0,0,14.424-13.256l1.192,1.192a1.609,1.609,0,0,0,2.271-2.279l-3.866-3.865a1.61,1.61,0,0,0-2.275,0l-3.87,3.869a1.609,1.609,0,0,0,2.279,2.271Z" transform="translate(-173.871 -178.613)" fill="#1bb193"/>
  </g>
</svg>
