<svg xmlns="http://www.w3.org/2000/svg" width="70.155" height="98.91" viewBox="0 0 70.155 98.91">
  <g id="Group_318" data-name="Group 318" transform="translate(-58.43 -1113.646)">
    <path id="Path_260" data-name="Path 260" d="M194.631,31.1h-7.4V23.7a1.118,1.118,0,0,0-1.12-1.12h-5.478a1.118,1.118,0,0,0-1.12,1.12v7.4h-7.4a1.118,1.118,0,0,0-1.12,1.12v5.478a1.118,1.118,0,0,0,1.12,1.12h7.4v7.4a1.118,1.118,0,0,0,1.12,1.12h5.478a1.118,1.118,0,0,0,1.12-1.12v-7.4h7.4a1.118,1.118,0,0,0,1.12-1.12V32.215A1.093,1.093,0,0,0,194.631,31.1Z" transform="translate(-112.57 1165.228)" fill="#ffda2f"/>
    <path id="Path_259" data-name="Path 259" d="M212.207,37.43h-12.9v-12.9a1.949,1.949,0,0,0-1.952-1.952H187.8a1.949,1.949,0,0,0-1.952,1.952v12.9h-12.9A1.949,1.949,0,0,0,171,39.383v9.552a1.949,1.949,0,0,0,1.952,1.952h12.9v12.9a1.949,1.949,0,0,0,1.952,1.952h9.552a1.949,1.949,0,0,0,1.952-1.952v-12.9h12.9a1.949,1.949,0,0,0,1.952-1.952V39.383A1.906,1.906,0,0,0,212.207,37.43Z" transform="translate(-85.575 1113.722)" fill="#f6b859" opacity="0.6"/>
    <path id="Path_261" data-name="Path 261" d="M186.6,28.2h-4.883V23.318a.738.738,0,0,0-.739-.739h-3.616a.738.738,0,0,0-.739.739V28.2h-4.883a.738.738,0,0,0-.739.739v3.616a.738.738,0,0,0,.739.739h4.883v4.883a.738.738,0,0,0,.739.739h3.616a.738.738,0,0,0,.739-.739V33.3H186.6a.738.738,0,0,0,.739-.739V28.94A.722.722,0,0,0,186.6,28.2Z" transform="translate(-104.159 1091.068)" fill="rgba(27,177,147,0.32)"/>
  </g>
</svg>
