<svg xmlns="http://www.w3.org/2000/svg" width="81.3" height="85.855" viewBox="0 0 81.3 85.855">
  <g id="Group_317" data-name="Group 317" transform="translate(-1507.296 -1839.768)">
    <path id="Path_253" data-name="Path 253" d="M207.913,35.883H196.358V24.328a1.746,1.746,0,0,0-1.749-1.749h-8.557a1.746,1.746,0,0,0-1.749,1.749V35.883H172.749A1.746,1.746,0,0,0,171,37.631v8.557a1.746,1.746,0,0,0,1.749,1.749H184.3V59.492a1.746,1.746,0,0,0,1.749,1.749h8.557a1.746,1.746,0,0,0,1.749-1.749V47.937h11.555a1.746,1.746,0,0,0,1.749-1.749V37.631A1.708,1.708,0,0,0,207.913,35.883Z" transform="translate(1363.326 1854.292)" fill="#ffda2f"/>
    <path id="Path_255" data-name="Path 255" d="M189.623,29.291h-5.83v-5.83a.881.881,0,0,0-.882-.882h-4.317a.881.881,0,0,0-.882.882v5.83h-5.83a.881.881,0,0,0-.882.882V34.49a.881.881,0,0,0,.882.882h5.83V41.2a.881.881,0,0,0,.882.882h4.317a.881.881,0,0,0,.882-.882v-5.83h5.83a.881.881,0,0,0,.882-.882V30.173A.862.862,0,0,0,189.623,29.291Z" transform="translate(1336.296 1841.765)" fill="#f6b859"/>
    <path id="Path_256" data-name="Path 256" d="M182.528,26.734h-3.609V23.125a.545.545,0,0,0-.546-.546H175.7a.545.545,0,0,0-.546.546v3.609h-3.609a.545.545,0,0,0-.546.546v2.672a.545.545,0,0,0,.546.546h3.609v3.609a.545.545,0,0,0,.546.546h2.672a.545.545,0,0,0,.546-.546V30.5h3.609a.545.545,0,0,0,.546-.546V27.28A.533.533,0,0,0,182.528,26.734Z" transform="translate(1402.367 1890.97)" fill="rgba(27,177,147,0.32)"/>
    <path id="Path_254" data-name="Path 254" d="M194.465,31.036H187.12V23.691a1.11,1.11,0,0,0-1.112-1.112h-5.439a1.11,1.11,0,0,0-1.112,1.112v7.345h-7.345A1.11,1.11,0,0,0,171,32.147v5.439a1.11,1.11,0,0,0,1.112,1.112h7.345v7.345a1.11,1.11,0,0,0,1.112,1.112h5.439a1.11,1.11,0,0,0,1.112-1.112V38.7h7.345a1.11,1.11,0,0,0,1.112-1.112V32.147A1.086,1.086,0,0,0,194.465,31.036Z" transform="translate(1393.02 1817.189)" fill="#1bb193"/>
  </g>
</svg>
