<svg xmlns="http://www.w3.org/2000/svg" width="98.3" height="78.087" viewBox="0 0 98.3 78.087">
  <g id="Group_407" data-name="Group 407" transform="translate(-2884.637 -76.681)">
    <path id="Path_1305" data-name="Path 1305" d="M2979.061,79.592h-74.832a11.832,11.832,0,1,0-.162,17.984h74.994a3.881,3.881,0,0,0,3.876-3.876V83.468A3.88,3.88,0,0,0,2979.061,79.592Zm-82.592,17.964a9.042,9.042,0,1,1,9.042-9.042A9.052,9.052,0,0,1,2896.469,97.556Zm83.677-3.856a1.087,1.087,0,0,1-1.085,1.085H2906.5a11.805,11.805,0,0,0,.09-12.4h72.474a1.087,1.087,0,0,1,1.085,1.085Z" transform="translate(0)" fill="#1bb193"/>
    <path id="Path_1306" data-name="Path 1306" d="M2962.482,211.3h-58.253a11.832,11.832,0,1,0-.162,17.984h58.415a3.88,3.88,0,0,0,3.876-3.876V215.174A3.88,3.88,0,0,0,2962.482,211.3Zm-66.012,17.964a9.042,9.042,0,1,1,9.042-9.042A9.052,9.052,0,0,1,2896.469,229.262Zm67.1-3.856a1.087,1.087,0,0,1-1.085,1.085H2906.5a11.805,11.805,0,0,0,.09-12.4h55.9a1.086,1.086,0,0,1,1.085,1.085Z" transform="translate(0 -104.481)" fill="#1bb193"/>
    <path id="Path_1307" data-name="Path 1307" d="M2945.974,342.868h-41.745a11.832,11.832,0,1,0-.162,17.984h41.906a3.88,3.88,0,0,0,3.876-3.876V346.744A3.88,3.88,0,0,0,2945.974,342.868Zm-49.5,17.964a9.042,9.042,0,1,1,9.042-9.042A9.052,9.052,0,0,1,2896.469,360.832Zm50.59-3.856a1.086,1.086,0,0,1-1.085,1.085H2906.5a11.806,11.806,0,0,0,.09-12.4h39.387a1.087,1.087,0,0,1,1.085,1.085Z" transform="translate(0 -208.854)" fill="#1bb193"/>
    <path id="Path_1308" data-name="Path 1308" d="M2923.943,110.943l.442,2.017,1.969-.937v8.127h2.539V109.629h-2.1Z" transform="translate(-31.181 -26.138)" fill="#1bb193"/>
    <path id="Path_1309" data-name="Path 1309" d="M2927.746,247.319c1.668-1.491,2.78-2.83,2.78-4.52,0-2.029-1.461-3.34-3.721-3.34a5.807,5.807,0,0,0-3.442,1.084l-.062.047.762,1.93.108-.083a3.56,3.56,0,0,1,2.143-.836c1.014,0,1.595.512,1.595,1.4-.031,1.151-1.057,2.258-3.346,4.306l-1.367,1.237v1.609h7.522v-2.19h-3.744Z" transform="translate(-30.587 -129.13)" fill="#1bb193"/>
    <path id="Path_1310" data-name="Path 1310" d="M2929.277,375.869a2.492,2.492,0,0,0,1.689-2.39c0-1.331-1.092-2.674-3.531-2.674a6.531,6.531,0,0,0-3.245.794l-.065.041.549,1.948.116-.069a4.668,4.668,0,0,1,2.105-.6c.889,0,1.42.365,1.42.976,0,.777-.937,1.071-1.738,1.087h-1.039v1.936h1.087c.911,0,1.975.359,1.975,1.372,0,.788-.684,1.277-1.785,1.277a5.656,5.656,0,0,1-2.348-.623l-.114-.059-.545,2.006.064.041a6.145,6.145,0,0,0,3.118.746c2.587,0,4.324-1.311,4.324-3.261A2.623,2.623,0,0,0,2929.277,375.869Z" transform="translate(-31.074 -233.326)" fill="#1bb193"/>
  </g>
</svg>
