<svg xmlns="http://www.w3.org/2000/svg" width="88.18" height="78.087" viewBox="0 0 88.18 78.087">
  <g id="Group_277" data-name="Group 277" transform="translate(-808.303 -75.758)" opacity="0.995">
    <path id="Path_219" data-name="Path 219" d="M895.215,126.374a4.752,4.752,0,0,0-2.154-1.335,4.828,4.828,0,0,0-4.361-6.088,4.822,4.822,0,0,0-4.366-4.795,4.827,4.827,0,0,0-8.109-3.725l-.473.44a5.774,5.774,0,0,0-3.043-.974,6.043,6.043,0,0,0-1.559.155l-2.4-2.869a2.737,2.737,0,0,0-3.848-.345l-.472.394L838.489,76.3a1.517,1.517,0,0,0-2.421,1.821l-27.006,22.552a2.116,2.116,0,0,0,.173,3.377l10.269,6.931,5.428,11.9a2.1,2.1,0,0,0,1.456,1.185,2.136,2.136,0,0,0,1.826-.441L855.243,101l6.854,8.173-.723.6a2.733,2.733,0,0,0-.346,3.849l0,0,2.423,2.895a7.519,7.519,0,0,0-.748,1.561l-5.027,12.366-24.245,18.636a2.654,2.654,0,0,0,1.618,4.758h26.7a2.671,2.671,0,0,0,1.9-.8l7.188-7.381,7.544-.543a1.537,1.537,0,0,0,.166-.021,9.4,9.4,0,0,0,4.668-2.331l3.2-2.9.018-.014c.019-.014.039-.029.057-.044l2.014-1.69a4.753,4.753,0,0,0,2.367-1.2l4.087-3.8A4.786,4.786,0,0,0,895.215,126.374ZM868.39,111.532l-2.884,2.714-1.954-2.336,3.063-2.557,1.8,2.154Zm16.391,25.73-.014.012-.051-.061Zm-4.047-21.983-.362.332-2.448-2.629.362-.335h0a1.8,1.8,0,0,1,2.538.09h0a1.8,1.8,0,0,1-.089,2.54l0,0Zm1.682,2.581.236-.219a1.8,1.8,0,0,1,2.588,2.481c-.042.035-.082.071-.122.11l-2.533,2.352a4.4,4.4,0,0,0,.609-2.03,4.3,4.3,0,0,0-.774-2.693Zm7.21,7.225-.731.679a4.86,4.86,0,0,0-.436.362l-3.122,2.9a1.776,1.776,0,0,1-1.013.271h0a1.8,1.8,0,0,1-1.3-2.96l.123-.11,4.013-3.728c.058-.053.114-.109.168-.165a1.8,1.8,0,0,1,2.3,2.755Zm-9.468-4.68a1.408,1.408,0,0,1-.453.965l-.743.691a1.375,1.375,0,0,1-1.547.245.422.422,0,0,0-.042-.021,1.23,1.23,0,0,1-.3-.239l-1.873-2.016a3.89,3.89,0,0,0-2.738-1.242,4.006,4.006,0,0,0-2.9,1.1,1.509,1.509,0,0,0-.473,1.2,7.1,7.1,0,0,1-.04,1.347c0,.023-.006.045-.006.054a5.95,5.95,0,0,1-1.225,2.883,1.516,1.516,0,0,0,2.378,1.882l.024-.031a9.432,9.432,0,0,0,.947-1.5l11.363,13.584-1.337,1.214h0a6.387,6.387,0,0,1-3.092,1.572l-8.031.577a1.512,1.512,0,0,0-.978.452l-7.481,7.68H836.181L859.864,132.6a.4.4,0,0,0,.045-.038l.024-.021.031-.026a1.577,1.577,0,0,0,.135-.141l.023-.03a1.516,1.516,0,0,0,.108-.153l.015-.023a1.583,1.583,0,0,0,.09-.181l5.205-12.8a.885.885,0,0,0,.033-.09,4.627,4.627,0,0,1,1.214-1.889l3.689-3.473a2.956,2.956,0,0,1,2.141-.814,2.737,2.737,0,0,1,1.927.868l5.294,5.687A1.258,1.258,0,0,1,880.158,120.406Zm-8.037,1.435a.974.974,0,0,1,.231-.019.875.875,0,0,1,.618.276l1.874,2.015a4.229,4.229,0,0,0,.6.538,4.822,4.822,0,0,0,4.113,2.855,4.828,4.828,0,0,0,3.462,4.627,4.8,4.8,0,0,0,.362,3.488l-11.273-13.479c0-.105.009-.205.012-.3Zm14.315,10.3.8-.743a4.855,4.855,0,0,0,.438-.362l3.12-2.895a1.747,1.747,0,0,1,2.106,2.767l-4.086,3.8a1.729,1.729,0,0,1-1.057.462h-.2a1.746,1.746,0,0,1-1.124-3.025ZM853.294,98.675l-26.1,21.846-5.038-11.037a2.1,2.1,0,0,0-.74-.875l-9.466-6.391,26.066-21.769Z" fill="#1bb193"/>
    <path id="Path_220" data-name="Path 220" d="M853.274,107.9l-26.043,21.8-5.038-11.037a2.115,2.115,0,0,0-.741-.875l-9.47-6.391L838.018,89.65l-1.946-2.328L809.1,109.848a2.116,2.116,0,0,0,.173,3.377l10.268,6.93,5.428,11.9a2.1,2.1,0,0,0,1.455,1.185,2.138,2.138,0,0,0,1.827-.441l26.966-22.569Z" transform="translate(-0.03 -9.183)" fill="#1bb193"/>
    <path id="Path_221" data-name="Path 221" d="M988.141,255.064a4.75,4.75,0,0,0-2.154-1.335,4.826,4.826,0,0,0-4.36-6.088,4.824,4.824,0,0,0-4.366-4.8,4.827,4.827,0,0,0-8.11-3.725l-.473.44a5.775,5.775,0,0,0-3.043-.974,6.043,6.043,0,0,0-1.559.155,3.438,3.438,0,0,0-1.4.7l-4.21,3.468c1.086-1-.036.033-.036.033h0c-.181.163-1.028.944,0,0-.058.062-.666.71-1.229,1.272a5,5,0,0,0-.814,1,7.507,7.507,0,0,0-.747,1.561l-5.027,12.366-24.245,18.636a2.654,2.654,0,0,0,1.618,4.758h26.7a2.668,2.668,0,0,0,1.9-.8l7.188-7.381,7.544-.543a1.538,1.538,0,0,0,.166-.021,9.4,9.4,0,0,0,4.668-2.331l3.2-2.9.018-.014c.019-.014.038-.029.056-.044l2.016-1.69a4.754,4.754,0,0,0,2.367-1.2l4.085-3.8A4.786,4.786,0,0,0,988.141,255.064Zm-12.564-8.733a1.8,1.8,0,0,1,2.588,2.481c-.041.035-.082.071-.123.11l-2.533,2.352a4.411,4.411,0,0,0,.609-2.03,4.306,4.306,0,0,0-.775-2.7Zm-4.363-4.993h0a1.8,1.8,0,0,1,2.537.089h0a1.8,1.8,0,0,1-.09,2.538l-.357.332-2.448-2.629Zm6.491,24.614-.013.012-.005-.006L975.44,268h0l-1.337,1.214h0a6.383,6.383,0,0,1-3.092,1.572l-8.031.577a1.515,1.515,0,0,0-.978.452l-7.48,7.68H929.1l23.682-18.209a.4.4,0,0,0,.045-.038l.024-.021.031-.026a1.619,1.619,0,0,0,.136-.141l.023-.03a1.67,1.67,0,0,0,.107-.153l.015-.023a1.589,1.589,0,0,0,.09-.181l5.205-12.8c.012-.029.022-.058.034-.09a4.622,4.622,0,0,1,1.213-1.889l3.691-3.473a2.949,2.949,0,0,1,2.14-.814,2.734,2.734,0,0,1,1.927.867l5.295,5.687a1.26,1.26,0,0,1,.332.929,1.41,1.41,0,0,1-.452.965l-.743.691a1.374,1.374,0,0,1-1.546.245l-.042-.021a1.235,1.235,0,0,1-.306-.239l-1.873-2.016a3.89,3.89,0,0,0-2.738-1.242,4.006,4.006,0,0,0-2.9,1.1,1.508,1.508,0,0,0-.474,1.2,7.075,7.075,0,0,1-.039,1.347.426.426,0,0,0-.007.054,5.941,5.941,0,0,1-1.227,2.883,1.516,1.516,0,1,0,2.4,1.851h0a9.413,9.413,0,0,0,.947-1.5l.007.008a7.926,7.926,0,0,0,.974-3.563l-.027-.033c.006-.107.011-.207.015-.3a.986.986,0,0,1,.231-.019.872.872,0,0,1,.617.276l1.873,2.015a4.293,4.293,0,0,0,.605.538,4.822,4.822,0,0,0,4.113,2.855,4.828,4.828,0,0,0,3.461,4.627,4.8,4.8,0,0,0,.353,3.477,5.118,5.118,0,0,0,.582.8,3.289,3.289,0,0,0,.856.805l-.042.039Zm-.452-7.969h0a1.8,1.8,0,0,1-1.3-2.96l.123-.11,4.013-3.728c.058-.053.114-.109.169-.165a1.8,1.8,0,0,1,2.3,2.755l-.73.678a5.006,5.006,0,0,0-.437.362l-3.121,2.9a1.777,1.777,0,0,1-1.015.267Zm8.577,1.612-4.086,3.8a1.728,1.728,0,0,1-1.057.462h-.2a1.747,1.747,0,0,1-1.125-3.025l.8-.744a4.979,4.979,0,0,0,.439-.362l3.119-2.895a1.745,1.745,0,0,1,2.1,2.765Z" transform="translate(-92.926 -128.69)" fill="#1bb193"/>
  </g>
</svg>
