<svg xmlns="http://www.w3.org/2000/svg" width="78" height="78" viewBox="0 0 78 78">
  <g id="Group_419" data-name="Group 419" transform="translate(-2380.899 -946.978)">
    <g id="Group_418" data-name="Group 418" transform="translate(2414.711 964.789)">
      <path id="Path_1297" data-name="Path 1297" d="M2539.3,1031.7l.647,25.989a1.6,1.6,0,0,0,1.6,1.567h5.6a1.614,1.614,0,0,0,1.605-1.568l.648-26v-.035a1.605,1.605,0,0,0-1.6-1.605h-6.928a1.605,1.605,0,0,0-1.568,1.641Zm3.261,1.567h3.587l-.567,22.773h-2.453Z" transform="translate(-2539.154 -1030.055)" fill="#1bb193"/>
      <path id="Path_1298" data-name="Path 1298" d="M2543.816,1181.217a5.2,5.2,0,0,0,0,10.4h0a5.2,5.2,0,1,0,0-10.4Zm1.979,5.2a1.984,1.984,0,0,1-1.981,1.98h0a1.981,1.981,0,0,1-1.979-1.984h0a1.992,1.992,0,0,1,1.982-1.98h0a1.982,1.982,0,0,1,1.98,1.983Z" transform="translate(-2538.617 -1148.81)" fill="#1bb193"/>
    </g>
    <path id="Path_1311" data-name="Path 1311" d="M2419.9,1024.978a39,39,0,1,1,39-39A39.044,39.044,0,0,1,2419.9,1024.978Zm0-74.57a35.57,35.57,0,1,0,35.57,35.57A35.61,35.61,0,0,0,2419.9,950.408Z" fill="#1bb193"/>
  </g>
</svg>
