<svg xmlns="http://www.w3.org/2000/svg" width="96.556" height="96.558" viewBox="0 0 96.556 96.558">
  <g id="Group_402" data-name="Group 402" transform="translate(-1349.068 -477.929)">
    <g id="Group_398" data-name="Group 398" transform="translate(1349.068 492.512)">
      <path id="Path_1279" data-name="Path 1279" d="M1429.63,513.893l-5.538-5.537a4.36,4.36,0,0,0-5.835-.3,4.3,4.3,0,0,0-.331.3l-65.682,65.681a4.365,4.365,0,0,0,0,6.166l5.537,5.537a4.359,4.359,0,0,0,6.165,0l42.731-42.73a1.385,1.385,0,0,0-1.958-1.958l-42.73,42.731a1.592,1.592,0,0,1-2.249,0l-5.538-5.538a1.592,1.592,0,0,1,0-2.249L1405.5,524.7l7.787,7.787-3.828,3.828a1.385,1.385,0,0,0,1.958,1.958l18.217-18.216a4.354,4.354,0,0,0,0-6.165Zm-22.175,8.85,12.429-12.43c.039-.038.079-.074.12-.108a.27.27,0,0,1,.022-.017c.035-.028.07-.055.107-.079l.008,0a1.6,1.6,0,0,1,1.738,0l.006,0c.037.024.073.052.108.079.007.006.015.01.021.016a1.61,1.61,0,0,1,.12.108l5.538,5.538a1.592,1.592,0,0,1,0,2.249l-12.43,12.43Z" transform="translate(-1349.952 -506.06)" fill="#fff"/>
      <path id="Path_1280" data-name="Path 1280" d="M1359.981,587.151a5.343,5.343,0,0,1-3.8-1.575l-5.538-5.538a5.385,5.385,0,0,1,0-7.606l65.683-65.681a5.383,5.383,0,0,1,.405-.367,5.31,5.31,0,0,1,3.4-1.209,5.383,5.383,0,0,1,3.4,1.208c.142.116.279.24.406.368l5.538,5.537a5.377,5.377,0,0,1,0,7.605L1411.25,538.11a2.4,2.4,0,0,1-3.4-3.4l3.108-3.107-6.347-6.347-50.574,50.574a.573.573,0,0,0,0,.809l5.537,5.538a.589.589,0,0,0,.81,0l42.73-42.731a2.4,2.4,0,0,1,3.4,3.4l-42.732,42.731A5.342,5.342,0,0,1,1359.981,587.151Zm60.144-79.939a3.3,3.3,0,0,0-2.108.748,3.4,3.4,0,0,0-.255.23l-65.682,65.682a3.345,3.345,0,0,0,0,4.725l5.538,5.538a3.34,3.34,0,0,0,4.725,0l42.731-42.731a.366.366,0,0,0-.518-.518l-42.73,42.731a2.611,2.611,0,0,1-3.689,0l-5.537-5.538a2.612,2.612,0,0,1,0-3.689l52.014-52.014,9.227,9.227-4.548,4.548a.366.366,0,0,0,.518.518l18.217-18.216a3.322,3.322,0,0,0,.978-2.363,3.312,3.312,0,0,0-.978-2.362h0l-5.538-5.538c-.082-.081-.167-.158-.255-.23A3.3,3.3,0,0,0,1420.125,507.212Zm-5.767,23.874-9.227-9.228,13.15-13.149c.064-.063.129-.122.2-.177l.054-.042c.056-.043.105-.079.156-.113l.039-.024a2.608,2.608,0,0,1,2.8,0l.063.041c.033.021.084.058.135.1l.058.045a2.465,2.465,0,0,1,.2.178l5.535,5.534a2.613,2.613,0,0,1,0,3.689Zm-6.347-9.228,6.347,6.347,11.71-11.709a.574.574,0,0,0,0-.809l-5.538-5.537a.308.308,0,0,0-.028-.026l-.064-.048a.579.579,0,0,0-.6-.014l-.049.033-.015.011-.022.017-.028.026Z" transform="translate(-1349.068 -505.176)" fill="#fff"/>
    </g>
    <g id="Group_399" data-name="Group 399" transform="translate(1398.413 477.929)">
      <path id="Path_1281" data-name="Path 1281" d="M1444.551,487.985h4v4a1.384,1.384,0,0,0,2.769,0v-4h4a1.385,1.385,0,0,0,0-2.769h-4v-4a1.384,1.384,0,1,0-2.769,0v4h-4a1.385,1.385,0,1,0,0,2.769Z" transform="translate(-1442.148 -478.813)" fill="#fff"/>
      <path id="Path_1282" data-name="Path 1282" d="M1449.051,493.5a2.406,2.406,0,0,1-2.4-2.4v-2.981h-2.981a2.4,2.4,0,0,1,0-4.806h2.981v-2.982a2.4,2.4,0,0,1,4.806,0v2.982h2.981a2.4,2.4,0,1,1,0,4.806h-2.981V491.1A2.406,2.406,0,0,1,1449.051,493.5Zm-5.385-8.153a.366.366,0,0,0,0,.732h5.018V491.1a.366.366,0,1,0,.732,0v-5.018h5.018a.366.366,0,1,0,0-.732h-5.018v-5.018a.366.366,0,0,0-.732,0v5.018Z" transform="translate(-1441.264 -477.929)" fill="#fff"/>
    </g>
    <g id="Group_400" data-name="Group 400" transform="translate(1430.049 477.929)">
      <path id="Path_1283" data-name="Path 1283" d="M1503.66,487.985h4v4a1.385,1.385,0,0,0,2.77,0v-4h4a1.385,1.385,0,0,0,0-2.769h-4v-4a1.385,1.385,0,0,0-2.77,0v4h-4a1.385,1.385,0,1,0,0,2.769Z" transform="translate(-1501.256 -478.813)" fill="#fff"/>
      <path id="Path_1284" data-name="Path 1284" d="M1508.16,493.5a2.406,2.406,0,0,1-2.4-2.4v-2.981h-2.981a2.4,2.4,0,1,1,0-4.806h2.981v-2.982a2.4,2.4,0,0,1,4.806,0v2.982h2.982a2.4,2.4,0,1,1,0,4.806h-2.982V491.1A2.406,2.406,0,0,1,1508.16,493.5Zm-5.384-8.153a.366.366,0,1,0,0,.732h5.018V491.1a.366.366,0,1,0,.732,0v-5.018h5.019a.366.366,0,0,0,0-.732h-5.019v-5.018a.366.366,0,1,0-.732,0v5.018Z" transform="translate(-1500.372 -477.929)" fill="#fff"/>
    </g>
    <g id="Group_401" data-name="Group 401" transform="translate(1429.768 511.569)">
      <path id="Path_1285" data-name="Path 1285" d="M1513.9,548.069h-4v-4a1.385,1.385,0,0,0-2.769,0v4h-4a1.385,1.385,0,1,0,0,2.769h4v4a1.385,1.385,0,0,0,2.769,0v-4h4a1.385,1.385,0,0,0,0-2.769Z" transform="translate(-1500.73 -541.667)" fill="#fff"/>
      <path id="Path_1286" data-name="Path 1286" d="M1507.633,556.356a2.406,2.406,0,0,1-2.4-2.4v-2.981h-2.981a2.4,2.4,0,0,1,0-4.806h2.981v-2.981a2.4,2.4,0,0,1,4.807,0v2.981h2.981a2.4,2.4,0,1,1,0,4.806h-2.981v2.981A2.406,2.406,0,0,1,1507.633,556.356Zm-5.385-8.154a.366.366,0,0,0,0,.733h5.018v5.018a.366.366,0,0,0,.732,0v-5.018h5.018a.366.366,0,0,0,0-.733H1508v-5.018a.366.366,0,1,0-.732,0V548.2Z" transform="translate(-1499.846 -540.782)" fill="#fff"/>
    </g>
  </g>
</svg>
