<svg xmlns="http://www.w3.org/2000/svg" xmlns:xlink="http://www.w3.org/1999/xlink" width="1168" height="153.351" viewBox="0 0 1168 153.351">
  <defs>
    <linearGradient id="linear-gradient" x1="1" y1="1" x2="0.384" y2="1" gradientUnits="objectBoundingBox">
      <stop offset="0" stop-color="#1bb193" stop-opacity="0.306"/>
      <stop offset="1" stop-color="#1bb193" stop-opacity="0.082"/>
    </linearGradient>
    <linearGradient id="linear-gradient-2" x1="1" y1="1" x2="0.384" y2="1" gradientUnits="objectBoundingBox">
      <stop offset="0" stop-color="#1bb193" stop-opacity="0.431"/>
      <stop offset="1" stop-color="#1bb193" stop-opacity="0.082"/>
    </linearGradient>
  </defs>
  <g id="Group_1237" data-name="Group 1237" transform="translate(-316 -1447.837)">
    <path id="Path_1326" data-name="Path 1326" d="M183.162,301.844s608.2-8.094,649.641-10.676c143.658-8.693,369.146-29.585,500.408-119.4V314.494L183.163,313.9Z" transform="translate(141.727 1276.068)" fill="url(#linear-gradient)" style="mix-blend-mode: normal;isolation: isolate"/>
    <path id="Path_1326-2" data-name="Path 1326" d="M1333.211,314.494,183.163,313.9Z" transform="translate(141.728 1276.068)" fill="url(#linear-gradient-2)" style="mix-blend-mode: normal;isolation: isolate"/>
    <rect id="Rectangle_386" data-name="Rectangle 386" width="1148.801" height="4.116" transform="translate(325.593 1589.536)" fill="#1bb193"/>
    <circle id="Ellipse_45" data-name="Ellipse 45" cx="9.594" cy="9.594" r="9.594" transform="translate(316 1582)" fill="#f6b859"/>
    <circle id="Ellipse_61" data-name="Ellipse 61" cx="9.594" cy="9.594" r="9.594" transform="translate(603.203 1582)" fill="#f6b859"/>
    <circle id="Ellipse_62" data-name="Ellipse 62" cx="9.594" cy="9.594" r="9.594" transform="translate(746.805 1582)" fill="#f6b859"/>
    <circle id="Ellipse_63" data-name="Ellipse 63" cx="9.594" cy="9.594" r="9.594" transform="translate(818.605 1582)" fill="#f6b859"/>
    <circle id="Ellipse_64" data-name="Ellipse 64" cx="9.594" cy="9.594" r="9.594" transform="translate(1034.008 1582)" fill="#f6b859"/>
    <circle id="Ellipse_65" data-name="Ellipse 65" cx="9.594" cy="9.594" r="9.594" transform="translate(1105.809 1582)" fill="#f6b859"/>
    <circle id="Ellipse_66" data-name="Ellipse 66" cx="9.594" cy="9.594" r="9.594" transform="translate(1177.609 1582)" fill="#f6b859"/>
    <circle id="Ellipse_67" data-name="Ellipse 67" cx="9.594" cy="9.594" r="9.594" transform="translate(1249.41 1582)" fill="#f6b859"/>
    <circle id="Ellipse_68" data-name="Ellipse 68" cx="9.594" cy="9.594" r="9.594" transform="translate(1321.211 1582)" fill="#f6b859"/>
    <circle id="Ellipse_69" data-name="Ellipse 69" cx="9.594" cy="9.594" r="9.594" transform="translate(1393.012 1582)" fill="#f6b859"/>
    <circle id="Ellipse_70" data-name="Ellipse 70" cx="9.594" cy="9.594" r="9.594" transform="translate(1464.813 1582)" fill="#f6b859"/>
    <circle id="Ellipse_44" data-name="Ellipse 44" cx="5.594" cy="5.594" r="5.594" transform="translate(391.801 1586)" fill="#0f7d67"/>
    <circle id="Ellipse_46" data-name="Ellipse 46" cx="5.594" cy="5.594" r="5.594" transform="translate(463.602 1586)" fill="#0f7d67"/>
    <circle id="Ellipse_47" data-name="Ellipse 47" cx="5.594" cy="5.594" r="5.594" transform="translate(535.402 1586)" fill="#0f7d67"/>
    <circle id="Ellipse_49" data-name="Ellipse 49" cx="5.594" cy="5.594" r="5.594" transform="translate(679.004 1586)" fill="#0f7d67"/>
    <circle id="Ellipse_52" data-name="Ellipse 52" cx="5.594" cy="5.594" r="5.594" transform="translate(894.406 1586)" fill="#0f7d67"/>
    <circle id="Ellipse_53" data-name="Ellipse 53" cx="5.594" cy="5.594" r="5.594" transform="translate(966.207 1586)" fill="#0f7d67"/>
  </g>
</svg>
