<svg id="facebook-2" xmlns="http://www.w3.org/2000/svg" width="27.868" height="27.868" viewBox="0 0 27.868 27.868">
  <path id="Path_137" data-name="Path 137" d="M26.33,0H1.537A1.538,1.538,0,0,0,0,1.538V26.331a1.538,1.538,0,0,0,1.538,1.537H26.33a1.538,1.538,0,0,0,1.538-1.538h0V1.537A1.538,1.538,0,0,0,26.33,0Zm0,0" transform="translate(0 0)" fill="#1bb193"/>
  <path id="Path_138" data-name="Path 138" d="M214.974,100.984V90.207h3.633l.544-4.218h-4.178V83.3c0-1.219.338-2.049,2.086-2.049h2.214V77.49a29.769,29.769,0,0,0-3.245-.166c-3.211,0-5.409,1.96-5.409,5.56v3.1H207v4.218h3.62v10.777Zm0,0" transform="translate(-195.733 -73.115)" fill="#fff"/>
</svg>
