<svg id="Group_128" data-name="Group 128" xmlns="http://www.w3.org/2000/svg" width="27.868" height="27.868" viewBox="0 0 27.868 27.868">
  <g id="facebook-2" transform="translate(0 0)">
    <path id="Path_137" data-name="Path 137" d="M26.33,0H1.537A1.538,1.538,0,0,0,0,1.538V26.331a1.538,1.538,0,0,0,1.538,1.537H26.33a1.538,1.538,0,0,0,1.538-1.538h0V1.537A1.538,1.538,0,0,0,26.33,0Zm0,0" transform="translate(0 0)" fill="#1bb193"/>
  </g>
  <g id="Group_126" data-name="Group 126" transform="translate(5.769 6.234)">
    <path id="Path_139" data-name="Path 139" d="M-592.441,109a1.827,1.827,0,0,0-1.981,1.82,1.812,1.812,0,0,0,1.935,1.819h.023a1.826,1.826,0,0,0,1.981-1.819A1.819,1.819,0,0,0-592.441,109Z" transform="translate(594.422 -109)" fill="#fff"/>
    <rect id="Rectangle_265" data-name="Rectangle 265" width="3.501" height="10.532" transform="translate(0.207 5.077)" fill="#fff"/>
    <path id="Path_140" data-name="Path 140" d="M-490.386,205.8v-5.882a2.4,2.4,0,0,1,.115-.854,1.916,1.916,0,0,1,1.8-1.28c1.267,0,1.774.966,1.774,2.382V205.8h3.5v-6.039c0-3.235-1.727-4.74-4.03-4.74a3.476,3.476,0,0,0-3.155,1.738V195.27h-3.5c.046.988,0,10.532,0,10.532Z" transform="translate(499.532 -190.193)" fill="#fff"/>
  </g>
</svg>
