<svg id="Group_127" data-name="Group 127" xmlns="http://www.w3.org/2000/svg" width="27.868" height="27.868" viewBox="0 0 27.868 27.868">
  <g id="facebook-2" transform="translate(0 0)">
    <path id="Path_137" data-name="Path 137" d="M26.33,0H1.537A1.538,1.538,0,0,0,0,1.538V26.331a1.538,1.538,0,0,0,1.538,1.537H26.33a1.538,1.538,0,0,0,1.538-1.538h0V1.537A1.538,1.538,0,0,0,26.33,0Zm0,0" transform="translate(0 0)" fill="#1bb193"/>
  </g>
  <path id="Icon" d="M44.4,37.817a7.1,7.1,0,0,1-2.08.614,3.825,3.825,0,0,0,1.588-2.148,6.91,6.91,0,0,1-2.289.941,3.433,3.433,0,0,0-3.963-.96,3.892,3.892,0,0,0-2.283,3.616,4.313,4.313,0,0,0,.084.885A10,10,0,0,1,28.02,36.7a4.071,4.071,0,0,0,1.111,5.2A3.371,3.371,0,0,1,27.5,41.42v.042a3.846,3.846,0,0,0,2.892,3.815,3.359,3.359,0,0,1-.946.127,3,3,0,0,1-.685-.065,3.691,3.691,0,0,0,3.375,2.707A6.938,6.938,0,0,1,27.664,49.7a6.063,6.063,0,0,1-.864-.054,9.64,9.64,0,0,0,5.544,1.744c6.644,0,10.277-5.923,10.277-11.057,0-.171,0-.337-.013-.5A7.516,7.516,0,0,0,44.4,37.817Z" transform="translate(-21.668 -29.55)" fill="#fff"/>
</svg>
