<svg xmlns="http://www.w3.org/2000/svg" width="83.587" height="33.906" viewBox="0 0 83.587 33.906">
  <g id="Group_1230" data-name="Group 1230" transform="translate(-22.662 -1424.722)">
    <path id="Path_1323" data-name="Path 1323" d="M180.147,25.876h-2.863V23.012a.433.433,0,0,0-.433-.433h-2.12a.433.433,0,0,0-.433.433v2.863h-2.863a.433.433,0,0,0-.433.433v2.12a.433.433,0,0,0,.433.433H174.3v2.863a.433.433,0,0,0,.433.433h2.12a.433.433,0,0,0,.433-.433V28.863h2.863a.433.433,0,0,0,.433-.433v-2.12A.423.423,0,0,0,180.147,25.876Z" transform="translate(-107.559 1402.143)" fill="#137d67" opacity="0.328"/>
    <path id="Path_1319" data-name="Path 1319" d="M182.689,26.792H179.03V23.133a.553.553,0,0,0-.554-.554h-2.71a.553.553,0,0,0-.554.554v3.659h-3.659a.553.553,0,0,0-.554.554v2.71a.553.553,0,0,0,.554.554h3.659v3.659a.553.553,0,0,0,.554.554h2.71a.553.553,0,0,0,.554-.554V30.609h3.659a.553.553,0,0,0,.554-.554v-2.71A.541.541,0,0,0,182.689,26.792Z" transform="translate(-148.338 1417.58)" fill="#f6b859" opacity="0.238"/>
    <path id="Path_1317" data-name="Path 1317" d="M178.973,25.453h-2.5v-2.5a.377.377,0,0,0-.378-.378h-1.848a.377.377,0,0,0-.378.378v2.5h-2.5a.377.377,0,0,0-.378.378v1.848a.377.377,0,0,0,.378.378h2.5v2.5a.377.377,0,0,0,.378.378H176.1a.377.377,0,0,0,.378-.378v-2.5h2.5a.377.377,0,0,0,.378-.378V25.83A.369.369,0,0,0,178.973,25.453Z" transform="translate(-73.102 1427.698)" fill="rgba(27,177,147,0.15)"/>
  </g>
</svg>
