<svg xmlns="http://www.w3.org/2000/svg" width="45.541" height="59.487" viewBox="0 0 45.541 59.487">
  <g id="Group_1228" data-name="Group 1228" transform="translate(-24 -1224.223)">
    <path id="Path_6153" data-name="Path 6153" d="M178.7,25.355h-2.411V22.944a.364.364,0,0,0-.365-.365h-1.786a.364.364,0,0,0-.365.365v2.411h-2.411a.364.364,0,0,0-.365.365v1.786a.364.364,0,0,0,.365.365h2.411v2.411a.364.364,0,0,0,.365.365h1.786a.364.364,0,0,0,.365-.365V27.871H178.7a.364.364,0,0,0,.365-.365V25.72A.356.356,0,0,0,178.7,25.355Z" transform="translate(-147 1228.146)" fill="#ffda2f" opacity="0.316"/>
    <path id="Path_6154" data-name="Path 6154" d="M182.649,26.777H179V23.131a.551.551,0,0,0-.552-.552h-2.7a.551.551,0,0,0-.552.552v3.646h-3.646a.551.551,0,0,0-.552.552v2.7a.551.551,0,0,0,.552.552H175.2v3.646a.551.551,0,0,0,.552.552h2.7a.551.551,0,0,0,.552-.552V30.581h3.646a.551.551,0,0,0,.552-.552v-2.7A.539.539,0,0,0,182.649,26.777Z" transform="translate(-113.659 1201.644)" fill="#b9e5dc" opacity="0.316"/>
    <path id="Path_6155" data-name="Path 6155" d="M177.977,25.094h-2.184V22.91a.33.33,0,0,0-.331-.331h-1.617a.33.33,0,0,0-.331.331v2.184h-2.184a.33.33,0,0,0-.331.331v1.617a.33.33,0,0,0,.331.331h2.184v2.184a.33.33,0,0,0,.331.331h1.617a.33.33,0,0,0,.331-.331V27.372h2.184a.33.33,0,0,0,.331-.331V25.424A.323.323,0,0,0,177.977,25.094Z" transform="translate(-119.952 1253.824)" fill="#1bb193" opacity="0.265"/>
  </g>
</svg>
