<svg xmlns="http://www.w3.org/2000/svg" width="103.342" height="43.564" viewBox="0 0 103.342 43.564">
  <g id="Group_1229" data-name="Group 1229" transform="translate(-263.305 -1418.857)">
    <path id="Path_7116" data-name="Path 7116" d="M179.665,25.7h-2.712V22.99a.41.41,0,0,0-.411-.411h-2.009a.41.41,0,0,0-.411.411V25.7H171.41a.41.41,0,0,0-.411.411v2.009a.41.41,0,0,0,.411.411h2.712v2.712a.41.41,0,0,0,.411.411h2.009a.41.41,0,0,0,.411-.411V28.531h2.712a.41.41,0,0,0,.411-.411V26.112A.4.4,0,0,0,179.665,25.7Z" transform="translate(135.17 1411.715)" fill="#ffda2f" opacity="0.316"/>
    <path id="Path_7117" data-name="Path 7117" d="M176.6,24.6h-1.753V22.844a.265.265,0,0,0-.265-.265h-1.3a.265.265,0,0,0-.265.265V24.6h-1.753a.265.265,0,0,0-.265.265v1.3a.265.265,0,0,0,.265.265h1.753v1.753a.265.265,0,0,0,.265.265h1.3a.265.265,0,0,0,.265-.265V26.426H176.6a.265.265,0,0,0,.265-.265v-1.3A.259.259,0,0,0,176.6,24.6Z" transform="translate(92.305 1430.184)" fill="#f6b859" opacity="0.238"/>
    <path id="Path_7118" data-name="Path 7118" d="M177.034,24.754h-1.889V22.865a.285.285,0,0,0-.286-.286h-1.4a.285.285,0,0,0-.286.286v1.889h-1.889a.285.285,0,0,0-.286.286v1.4a.285.285,0,0,0,.286.286h1.889v1.889a.285.285,0,0,0,.286.286h1.4a.285.285,0,0,0,.286-.286V26.724h1.889a.285.285,0,0,0,.286-.286v-1.4A.279.279,0,0,0,177.034,24.754Z" transform="translate(167.629 1433.522)" fill="#137d67" opacity="0.328"/>
    <path id="Path_7119" data-name="Path 7119" d="M181.165,26.243h-3.182V23.061a.481.481,0,0,0-.482-.482h-2.356a.481.481,0,0,0-.482.482v3.182h-3.182a.481.481,0,0,0-.482.482v2.356a.481.481,0,0,0,.482.482h3.182v3.182a.481.481,0,0,0,.482.482H177.5a.481.481,0,0,0,.482-.482V29.562h3.182a.481.481,0,0,0,.482-.482V26.724A.47.47,0,0,0,181.165,26.243Z" transform="translate(185 1396.278)" fill="#1bb193" opacity="0.265"/>
  </g>
</svg>
