<svg xmlns="http://www.w3.org/2000/svg" width="56.525" height="60.035" viewBox="0 0 56.525 60.035">
  <g id="Group_1227" data-name="Group 1227" transform="translate(-295.475 -1236.424)">
    <path id="Path_1318" data-name="Path 1318" d="M179.9,25.785h-2.785V23a.421.421,0,0,0-.421-.421h-2.062a.421.421,0,0,0-.421.421v2.785h-2.785a.421.421,0,0,0-.421.421v2.062a.421.421,0,0,0,.421.421h2.785v2.785a.421.421,0,0,0,.421.421h2.062a.421.421,0,0,0,.421-.421V28.69H179.9a.421.421,0,0,0,.421-.421V26.207A.412.412,0,0,0,179.9,25.785Z" transform="translate(124.475 1236.616)" fill="#137d67" opacity="0.328"/>
    <path id="Path_1320" data-name="Path 1320" d="M177.443,24.9h-2.017V22.884a.3.3,0,0,0-.305-.305h-1.494a.3.3,0,0,0-.305.305V24.9h-2.017a.3.3,0,0,0-.305.305V26.7a.3.3,0,0,0,.305.305h2.017v2.017a.3.3,0,0,0,.305.305h1.494a.3.3,0,0,0,.305-.305V27.005h2.017a.3.3,0,0,0,.305-.305V25.206A.3.3,0,0,0,177.443,24.9Z" transform="translate(163.324 1267.131)" fill="#1bb193" opacity="0.265"/>
    <path id="Path_1321" data-name="Path 1321" d="M184.654,27.5H180.38V23.226a.646.646,0,0,0-.647-.647h-3.165a.646.646,0,0,0-.647.647V27.5h-4.274a.646.646,0,0,0-.647.647v3.165a.646.646,0,0,0,.647.647h4.274v4.274a.646.646,0,0,0,.647.647h3.165a.646.646,0,0,0,.647-.647V31.959h4.274a.646.646,0,0,0,.647-.647V28.147A.632.632,0,0,0,184.654,27.5Z" transform="translate(166.698 1213.845)" fill="#ffda2f" opacity="0.316"/>
  </g>
</svg>
