<svg xmlns="http://www.w3.org/2000/svg" width="169.799" height="154.281" viewBox="0 0 169.799 154.281">
  <g id="Group_262" data-name="Group 262" transform="translate(-342.8 -28.4)">
    <g id="Group_261" data-name="Group 261" transform="translate(351.571 28.4)">
      <path id="Path_158" data-name="Path 158" d="M416.647,110.145l5.622,17.992H411.1ZM409.6,99.125,393.408,145.6H405.7l2.774-8.846h16.343l2.774,8.846h12.669L424.069,99.125Zm35.609,0V145.6h29.762v-9.671H457.279V99.125Zm-84.562,4.348c-4.873,4.573-6.147,11.695-6.147,19.491,0,7.047,1.05,14.319,6,18.892,2.924,2.774,7.347,4.648,13.944,4.648,7.5,0,13.194-2.324,17.842-7.272l-7.122-6.747a14.258,14.258,0,0,1-10.27,4.648c-2.924,0-4.573-.975-5.622-2.249-1.574-1.874-2.249-5.023-2.249-12.145,0-7.2.675-10.42,1.949-12.294,1.05-1.5,3-2.624,6.747-2.624a14.327,14.327,0,0,1,9.3,3.074l6.6-7.5c-4.123-3.973-9.97-5.1-15.518-5.1-7.422.075-12.294,2.1-15.443,5.173m123.245,0c-4.873,4.573-6.147,11.695-6.147,19.491,0,7.047,1.049,14.319,6,18.892,2.924,2.774,7.347,4.648,13.944,4.648,7.5,0,13.194-2.324,17.842-7.272l-7.122-6.747a14.258,14.258,0,0,1-10.27,4.648c-2.924,0-4.573-.975-5.622-2.249-1.574-1.874-2.249-5.023-2.249-12.145,0-7.2.675-10.42,1.949-12.294,1.049-1.5,3-2.624,6.747-2.624a14.327,14.327,0,0,1,9.3,3.074l6.6-7.5c-4.123-3.973-9.971-5.1-15.518-5.1-7.347.075-12.219,2.1-15.443,5.173" transform="translate(-354.5 -45.899)" fill="#fff"/>
      <path id="Path_159" data-name="Path 159" d="M392.583,28.475l-9.521,29.012-9.3-29.012H357.424l-2.924,46.1h11.695l1.349-34.41,9.9,32.385h11.02L398.43,40.32,399.7,74.654h11.77l-2.924-46.1H392.583Zm36.359,9.146h7.5c3.3,0,5.323.675,6.672,2.024,1.8,1.8,2.4,5.173,2.4,11.62,0,6.6-.6,9.821-2.324,11.62-1.424,1.5-3.673,2.249-6.822,2.249h-7.422V37.621ZM416.8,28.475v46.1h20.616c6.372,0,11.02-1.649,14.244-4.348,5.248-4.348,6.372-11.545,6.372-19.491,0-8.321-1.274-14.468-5.772-18.367-2.249-1.949-5.4-3.3-9.746-3.973H416.8Z" transform="translate(-354.5 -28.4)" fill="#fff"/>
    </g>
    <path id="Path_160" data-name="Path 160" d="M467.74,172.7v6.747H454.171v6.822h12.369v6.747H454.171v7.422H468.04v6.672H445.7V172.7Z" transform="translate(-25.76 -36.124)" fill="#f2b657"/>
    <path id="Path_161" data-name="Path 161" d="M490.921,172.7v13.269h11.62V172.7h8.621v34.41h-8.621V193.091h-11.62V207.11H482.3V172.7Z" transform="translate(-34.922 -36.124)" fill="#f2b657"/>
    <path id="Path_162" data-name="Path 162" d="M547.305,44.568H533.436V30.7a2.1,2.1,0,0,0-2.1-2.1h-10.27a2.1,2.1,0,0,0-2.1,2.1V44.568H505.1a2.1,2.1,0,0,0-2.1,2.1v10.27a2.1,2.1,0,0,0,2.1,2.1h13.869V72.905a2.1,2.1,0,0,0,2.1,2.1h10.27a2.1,2.1,0,0,0,2.1-2.1V59.036h13.869a2.1,2.1,0,0,0,2.1-2.1V46.667A2.05,2.05,0,0,0,547.305,44.568Z" transform="translate(-40.104 -0.05)" fill="#157e68"/>
    <path id="Path_163" data-name="Path 163" d="M537.5,188.668h3.9c4.123,0,6.222-.825,6.222-5.173,0-1.649-.3-2.624-1.05-3.224-.675-.525-1.574-.675-3.224-.675h-5.922l.075,9.071Zm6.447-15.968c3.448,0,6.447.525,8.7,1.874,2.4,1.424,4.048,3.748,4.048,7.946,0,4.723-2.024,8.321-6.972,9.521,4.648.825,6.072,5.023,7.2,15.068h-9.146c-1.349-9.3-2.1-11.695-5.4-11.695H537.5V207.11h-8.7V172.7Z" transform="translate(-46.563 -36.124)" fill="#f2b657"/>
    <path id="Path_164" data-name="Path 164" d="M368.663,185.193h-7.2l-5.248,24.439c-1.2,5.4-3.6,8.4-8.846,8.4a9.859,9.859,0,0,1-4.573-.975l1.424-2.7a5.957,5.957,0,0,0,3.149.825c3.074,0,4.648-1.724,5.473-5.622l5.248-24.364h-5.473l.675-2.924h5.4l.45-2.174c1.274-5.922,4.573-10.5,11.245-10.5,2.549,0,4.723.675,5.847,1.8l-1.949,2.249a5.938,5.938,0,0,0-4.048-1.124c-4.5,0-6.672,2.549-7.8,7.647l-.45,2.174h7.272Z" transform="translate(0 -35.348)" fill="#f2b657"/>
    <path id="Path_165" data-name="Path 165" d="M387.794,187.749a7.978,7.978,0,0,0-6.822,3.748,21.5,21.5,0,0,0-2.924,10.57c0,3.149.825,5.847,5.173,5.847,3.149,0,5.1-1.5,6.672-3.823a20.63,20.63,0,0,0,2.924-10.5c.15-3.074-.75-5.847-5.023-5.847m4.2,18.966a11.586,11.586,0,0,1-9.071,3.973c-5.772,0-8.321-3.224-8.321-9,0-4.048,1.349-9.221,4.423-12.744a11.828,11.828,0,0,1,9.221-4.048c5.7,0,8.321,3.224,8.321,9.071-.075,4.048-1.349,9.221-4.573,12.744" transform="translate(-7.961 -39.178)" fill="#f2b657"/>
    <path id="Path_166" data-name="Path 166" d="M423.642,188.673a4.311,4.311,0,0,0-2.324-.6c-4.573,0-7.722,5.248-9.221,12.219l-2.174,9.9H406.4l5.323-24.664H415.1l-1.274,5.4c1.949-4.048,4.873-5.922,8.1-5.922a5.462,5.462,0,0,1,3.3.975Z" transform="translate(-15.921 -39.203)" fill="#f2b657"/>
  </g>
</svg>
